<?xml version="1.0" standalone="no"?>
<!DOCTYPE svg PUBLIC "-//W3C//DTD SVG 20010904//EN"
 "http://www.w3.org/TR/2001/REC-SVG-20010904/DTD/svg10.dtd">
<svg version="1.0" xmlns="http://www.w3.org/2000/svg"
 width="512.000000pt" height="512.000000pt" viewBox="0 0 512.000000 512.000000"
 preserveAspectRatio="xMidYMid meet">
<metadata>
Created by potrace 1.14, written by Peter Selinger 2001-2017
</metadata>
<g transform="translate(0.000000,512.000000) scale(0.100000,-0.100000)"
fill="#000000" stroke="none">
<path d="M2379 5116 c-2 -2 -35 -6 -74 -10 -38 -3 -97 -10 -130 -16 -33 -6
-76 -13 -95 -16 -71 -11 -306 -76 -399 -110 -600 -223 -1091 -654 -1387 -1219
-133 -254 -215 -497 -259 -770 -2 -11 -6 -36 -9 -55 -22 -131 -29 -545 -11
-650 3 -19 13 -78 21 -130 132 -806 652 -1506 1393 -1875 218 -109 507 -201
720 -231 20 -3 79 -11 131 -18 89 -12 496 -14 560 -2 14 2 45 7 70 10 534 77
1032 317 1409 680 232 222 394 443 539 731 103 206 197 502 228 715 2 19 6 44
9 55 19 95 27 458 13 605 -60 601 -331 1162 -764 1582 -131 127 -281 245 -434
342 -246 155 -608 296 -875 341 -16 3 -39 7 -51 9 -12 2 -45 7 -74 11 -29 4
-62 9 -74 12 -24 5 -452 14 -457 9z m456 -202 c61 -7 119 -16 131 -19 12 -2
38 -7 59 -11 78 -12 294 -76 405 -120 253 -101 486 -244 695 -428 81 -72 99
-89 189 -186 247 -265 452 -644 540 -1000 60 -239 75 -378 71 -630 -2 -113 -6
-216 -9 -229 -3 -14 -8 -47 -11 -75 -9 -77 -53 -269 -86 -373 -195 -610 -640
-1127 -1211 -1406 -183 -90 -391 -163 -541 -193 -40 -7 -191 -33 -232 -39 -68
-11 -436 -13 -510 -4 -136 17 -160 20 -200 29 -22 5 -54 11 -72 14 -142 25
-426 130 -593 218 -92 48 -298 180 -349 222 -278 231 -461 443 -615 713 -104
182 -215 472 -252 656 -2 10 -5 26 -8 35 -6 22 -12 62 -35 247 -22 173 4 602
45 737 3 10 7 29 10 43 11 63 77 262 120 361 60 141 74 169 147 291 239 401
587 721 1002 923 233 112 487 191 700 215 33 4 80 11 105 14 77 12 390 9 505
-5z"/>
<path d="M1736 3384 c-16 -17 -26 -39 -27 -58 -1 -17 -1 -160 -1 -317 -1 -256
1 -288 17 -312 34 -52 119 -51 153 1 15 23 17 62 18 332 0 172 -4 314 -9 325
-28 59 -106 74 -151 29z"/>
<path d="M2589 3380 l-30 -29 3 -320 3 -321 26 -26 c36 -36 92 -36 128 0 l26
26 0 326 0 326 -28 24 c-40 35 -90 32 -128 -6z"/>
<path d="M3990 2650 c-5 -3 -8 -46 -7 -95 l2 -90 93 1 93 0 -6 -70 c-6 -80
-31 -225 -46 -273 -6 -17 -12 -42 -14 -56 -6 -33 -67 -181 -105 -257 -206
-407 -600 -717 -1044 -820 -125 -29 -159 -32 -331 -35 -270 -5 -490 46 -728
167 -303 155 -556 415 -699 718 -44 93 -84 200 -98 265 -7 28 -16 61 -20 75
-5 14 -11 43 -14 65 -13 104 -17 146 -21 217 -5 85 -20 120 -63 137 -39 16
-83 0 -109 -38 -23 -34 -24 -56 -8 -231 28 -309 159 -636 358 -890 242 -310
575 -528 953 -625 90 -23 106 -26 234 -44 88 -12 368 -7 460 8 518 85 954 374
1230 816 51 81 140 263 140 286 0 8 4 19 9 25 29 28 93 321 105 478 3 38 8 72
12 75 3 3 45 6 92 6 l87 0 3 95 3 95 -277 0 c-152 0 -280 -2 -284 -5z"/>
</g>
</svg>
